<svg aria-hidden="true" style="position:absolute;width:0;height:0;overflow:hidden" xmlns="http://www.w3.org/2000/svg">
  <defs>
    <symbol id="icon-close" viewBox="0 0 32 32">
      <path stroke-width="2.133" d="m8.533 8.533 14.933 14.933m-14.933.001L23.466 8.534"/>
    </symbol>
    <symbol id="icon-film" viewBox="0 0 32 32">
      <path stroke-width="2.667" fill="transparent" d="M26.427 2.667H5.574a2.907 2.907 0 0 0-2.907 2.907v20.853a2.907 2.907 0 0 0 2.907 2.907v0h20.853a2.907 2.907 0 0 0 2.907-2.907v0V5.574a2.907 2.907 0 0 0-2.907-2.907v0zm-17.094 0v26.667M22.667 2.667v26.667M2.667 16h26.667M2.667 9.333h6.667M2.667 22.667h6.667m13.333 0h6.667M22.667 9.333h6.667"/>
    </symbol>
    <symbol id="icon-heart" viewBox="0 0 34 32">
      <path d="m17.231 31.705-2.412-2.412C5.859 21.367.001 16.025.001 9.478.001 4.136 4.136.001 9.478.001c2.929 0 5.858 1.378 7.754 3.618 1.895-2.24 4.825-3.618 7.754-3.618 5.342 0 9.477 4.135 9.477 9.477 0 6.548-5.858 11.889-14.818 19.815l-2.412 2.412z"/>
    </symbol>
    <symbol id="icon-search" viewBox="0 0 32 32">
      <path fill="transparent" stroke-linejoin="round" stroke-linecap="round" stroke-width="2.667" d="M14.667 25.333c5.891 0 10.667-4.776 10.667-10.667S20.558 3.999 14.667 3.999v0C8.776 3.999 4 8.775 4 14.666s4.776 10.667 10.667 10.667v0zM28 28l-5.8-5.8"/>
    </symbol>
    <symbol id="icon-arrow-left" viewBox="0 0 32 32">
      <path stroke-miterlimit="4" stroke-width="2.666" d="M25.334 16h-18.668M16 25.334l-9.334-9.334 9.334-9.334"></path>
    </symbol>
    <symbol id="icon-arrow-right" viewBox="0 0 32 32">
      <path stroke-miterlimit="4" stroke-width="2.666" d="M6.666 16h18.668M16 25.334l9.334-9.334-9.334-9.334"></path>
    </symbol>
    <symbol id="icon-circle-up" viewBox="0 0 32 32">
    <path d="M0 16c0 8.837 7.163 16 16 16s16-7.163 16-16-7.163-16-16-16-16 7.163-16 16zM29 16c0 7.18-5.82 13-13 13s-13-5.82-13-13 5.82-13 13-13 13 5.82 13 13z"></path>
    <path d="M22.086 20.914l2.829-2.829-8.914-8.914-8.914 8.914 2.828 2.828 6.086-6.086z"></path>
    </symbol>
    <symbol id="icon-arrow_up1" viewBox="0 0 32 32">
    <path d="M4.55 15.45c0.362 0.362 0.862 0.587 1.415 0.587s1.053-0.224 1.415-0.587l6-6 0.62-1.2v19.75c0 1.105 0.895 2 2 2s2-0.895 2-2v0-19.72l0.5 1.060 6.1 6.1c0.362 0.362 0.862 0.586 1.415 0.586 1.105 0 2.001-0.896 2.001-2.001 0-0.553-0.224-1.053-0.586-1.415v0l-10-10c-0.362-0.362-0.862-0.587-1.415-0.587s-1.053 0.224-1.415 0.587l-10 10c-0.381 0.365-0.617 0.877-0.617 1.445 0 0.543 0.216 1.035 0.567 1.396l-0-0z"></path>
    </symbol>
    <!-- <symbol id="icon-arrow_up4" viewBox="0 0 32 32">
    <path d="M16 0c-8.837 0-16 7.163-16 16s7.163 16 16 16 16-7.163 16-16-7.163-16-16-16zM24.1 19.334l-1.431 1.433-6.672-6.671-6.666 6.666-0.713-0.713-0.003 0.003-0.716-0.716 0.004-0.003-0.004-0.003 8.103-8.096 0.005 0.005 0.005-0.005 0.778 0.777-0.006 0.005 7.316 7.318z"></path>
    </symbol> -->
    <symbol id="icon-arrow_up2" viewBox="0 0 32 32">
    <path d="M23.089 20.339l1.821-1.821q0.339-0.339 0.339-0.804t-0.339-0.804l-8.107-8.107q-0.339-0.339-0.804-0.339t-0.804 0.339l-8.107 8.107q-0.339 0.339-0.339 0.804t0.339 0.804l1.821 1.821q0.339 0.339 0.804 0.339t0.804-0.339l5.482-5.482 5.482 5.482q0.339 0.339 0.804 0.339t0.804-0.339zM29.714 16q0 3.732-1.839 6.884t-4.991 4.991-6.884 1.839-6.884-1.839-4.991-4.991-1.839-6.884 1.839-6.884 4.991-4.991 6.884-1.839 6.884 1.839 4.991 4.991 1.839 6.884z"></path>
    </symbol>
    <!-- <symbol id="icon-arrow_up5" viewBox="0 0 32 32">
    <path d="M7.111 19.556l8.889-8.889 8.889 8.889-1.778 1.778-7.111-7.111-7.111 7.111z"></path>
    </symbol> -->
    <symbol id="icon-play" viewBox="0 0 32 32">
    <path d="M30.662 5.003c-4.488-0.645-9.448-1.003-14.662-1.003s-10.174 0.358-14.662 1.003c-0.86 3.366-1.338 7.086-1.338 10.997s0.477 7.63 1.338 10.997c4.489 0.645 9.448 1.003 14.662 1.003s10.174-0.358 14.662-1.003c0.86-3.366 1.338-7.086 1.338-10.997s-0.477-7.63-1.338-10.997zM12 22v-12l10 6-10 6z"></path>
    </symbol>
    <symbol id="icon-arrow_up3" viewBox="0 0 32 32">
    <path d="M18.221 7.206l9.585 9.585c0.879 0.879 0.879 2.317 0 3.195l-0.8 0.801c-0.877 0.878-2.316 0.878-3.194 0l-7.315-7.315-7.315 7.315c-0.878 0.878-2.317 0.878-3.194 0l-0.8-0.801c-0.879-0.878-0.879-2.316 0-3.195l9.587-9.585c0.471-0.472 1.103-0.682 1.723-0.647 0.617-0.035 1.25 0.175 1.723 0.647z"></path>
    </symbol>
    <symbol id="icon-arrow_up6" viewBox="0 0 32 32">
    <path d="M18.221 7.206l9.585 9.585c0.879 0.879 0.879 2.317 0 3.195l-0.8 0.801c-0.877 0.878-2.316 0.878-3.194 0l-7.315-7.315-7.315 7.315c-0.878 0.878-2.317 0.878-3.194 0l-0.8-0.801c-0.879-0.878-0.879-2.316 0-3.195l9.587-9.585c0.471-0.472 1.103-0.682 1.723-0.647 0.617-0.035 1.25 0.175 1.723 0.647z"></path>
    </symbol>
  </defs>
</svg>
